<svg version="1.1" id="Capa_1" xmlns="http://www.w3.org/2000/svg" xmlns:xlink="http://www.w3.org/1999/xlink" x="0" y="0" viewBox="0 0 16.56 16.56" xml:space="preserve" enable-background="new 0 0 16.564 16.564">
  <path d="M12.09 11.97c-1.45-1.82-1.52-4.03-1.52-4.03 -0.09-0.07-0.18-0.17-0.32-0.26 -0.03-0.02-0.05-0.04-0.08-0.06C10.05 7.54 9.92 7.47 9.8 7.42 9.39 7.26 9.03 7.2 8.59 7.18 7.94 7.16 7.47 7.42 7.04 7.75 6.97 7.81 6.9 7.87 6.83 7.94c-0.15 0.15-0.21 0.23-0.34 0.37C6.47 8.33 6.47 8.34 6.45 8.36c0 0-0.55 1.88-1.56 3.23 -1.01 1.35-2.33 1.87-2.33 2.23 0 0.54 0.03 0.8 0.23 1.29 0.06 0.14 0.14 0.27 0.22 0.39 0.15 0.22 0.18 0.22 0.28 0.34 0.08 0.1 0.21 0.2 0.32 0.28 0.09 0.07 0.18 0.13 0.28 0.18 0.01 0.01 0.03 0.02 0.05 0.02 0.16 0.08 0.33 0.16 0.51 0.18l0.55 0.06h0.17c0.59-0.02 1.5-0.29 2.01-0.44 0.14-0.04 0.28-0.07 0.43-0.1l0.94-0.12c0.46-0.03 1.32 0.16 1.79 0.29 0.53 0.16 1.17 0.34 1.72 0.36h0.29c0.54-0.03 1.04-0.22 1.44-0.56 0.52-0.43 0.85-0.95 0.95-1.64C14.87 13.44 13.54 13.78 12.09 11.97z" fill="#030104"/>
  <path d="M15.93 6.51c0.07-0.1 0.13-0.2 0.16-0.31 0.06-0.2 0.06-0.4 0.01-0.59 -0.05-0.19-0.15-0.36-0.33-0.5 -0.13 0.19-0.2 0.35-0.26 0.49 -0.06 0.14-0.1 0.27-0.14 0.39 -0.03 0.09-0.05 0.17-0.07 0.26 -0.74 0-1.61 0.87-1.97 1.7 -0.41 0.96-0.1 2.02 0.7 2.36s1.78-0.15 2.2-1.11C16.59 8.36 16.48 7.07 15.93 6.51z" fill="#030104"/>
  <path d="M10.82 6.57c1.05 0.23 2.13-0.62 2.4-1.88 0.23-1.05-0.18-2.52-0.93-3.11 0.03-0.05 0.06-0.11 0.08-0.16 0.06-0.2 0.06-0.4 0.01-0.59 -0.05-0.19-0.15-0.36-0.33-0.5 -0.13 0.19-0.2 0.35-0.26 0.49 -0.06 0.14-0.1 0.27-0.14 0.39 -0.01 0.04-0.02 0.08-0.03 0.12 -0.99-0.02-1.95 1.37-2.21 2.56C9.14 5.14 9.77 6.34 10.82 6.57z" fill="#030104"/>
  <path d="M6.15 6.63C7.29 6.54 8.13 5.36 8.02 3.99 7.92 2.68 6.81 1.07 5.72 1 5.71 0.96 5.7 0.92 5.68 0.88 5.65 0.76 5.61 0.63 5.54 0.49 5.48 0.35 5.41 0.19 5.28 0c-0.18 0.14-0.28 0.32-0.33 0.51C4.9 0.69 4.9 0.9 4.96 1.1c0.01 0.03 0.03 0.06 0.04 0.09 -0.8 0.52-1.22 1.99-1.13 3.13C3.99 5.69 5 6.72 6.15 6.63z" fill="#030104"/>
  <path d="M3.78 7.79C3.5 6.69 2.33 5.47 1.38 5.53c-0.01-0.04-0.02-0.07-0.03-0.11C1.31 5.3 1.27 5.17 1.21 5.03c-0.06-0.14-0.13-0.3-0.26-0.49C0.77 4.68 0.67 4.85 0.62 5.04 0.56 5.23 0.57 5.44 0.63 5.64c0.02 0.07 0.06 0.14 0.1 0.2C0.14 6.43 0 7.73 0.24 8.68c0.3 1.17 1.33 1.92 2.31 1.68C3.53 10.11 4.08 8.96 3.78 7.79z" fill="#030104"/>
</svg>
